<?xml version="1.0" encoding="UTF-8"?>
<svg version="1.1" xmlns="http://www.w3.org/2000/svg" width="318" height="202">
<path d="M0 0 C104.94 0 209.88 0 318 0 C318 66.66 318 133.32 318 202 C213.06 202 108.12 202 0 202 C0 135.34 0 68.68 0 0 Z " fill="#FCFCFC" transform="translate(0,0)"/>
<path d="M0 0 C2.55444336 1.42358398 2.55444336 1.42358398 5.08984375 3.24609375 C6.03045654 3.91294189 6.97106934 4.57979004 7.94018555 5.2668457 C8.92929932 5.98316162 9.91841309 6.69947754 10.9375 7.4375 C13.02529146 8.92032768 15.1138316 10.4021018 17.203125 11.8828125 C18.20923828 12.59985352 19.21535156 13.31689453 20.25195312 14.05566406 C23.52570659 16.37195516 26.8398948 18.60433788 30.1875 20.8125 C38.67770232 26.41620652 47.07905046 32.15122679 55.48901367 37.87426758 C56.3438736 38.45303902 56.3438736 38.45303902 57.21600342 39.04350281 C58.3669797 39.82926193 59.51150899 40.62454585 60.6494751 41.42903137 C63.73638452 43.58793831 66.77673401 45.42376748 70.18188477 47.04248047 C79.9960979 51.98983356 79.9960979 51.98983356 81.75604248 57.26696777 C82.86200732 63.87683452 82.36803246 70.4725966 81.9375 77.125 C81.86216456 79.15079427 81.79373967 81.176858 81.73242188 83.203125 C81.56799144 88.14212513 81.30987408 93.06807596 81 98 C77.15787907 96.53225941 74.22444703 94.86375929 70.9375 92.375 C66.21042413 88.8060213 61.32426482 85.52632879 56.38793945 82.25292969 C52.8517351 79.90617296 49.33436435 77.53210661 45.8203125 75.15234375 C45.2009935 74.73295532 44.5816745 74.31356689 43.94358826 73.88146973 C42.00375421 72.56726199 40.06432762 71.25245492 38.125 69.9375 C37.12167633 69.25741882 37.12167633 69.25741882 36.0980835 68.56359863 C31.39760908 65.37737195 26.69839642 62.18928996 22 59 C21.40106934 58.59348206 20.80213867 58.18696411 20.18505859 57.76812744 C16.49679513 55.26439973 12.81032941 52.75804556 9.125 50.25 C8.20477051 49.62472412 7.28454102 48.99944824 6.33642578 48.35522461 C5.5061084 47.78940674 4.67579102 47.22358887 3.8203125 46.640625 C3.10117676 46.15110352 2.38204102 45.66158203 1.64111328 45.15722656 C0 44 0 44 -1 43 C-6.73693149 43.2779383 -10.26343462 45.12205288 -14.6875 48.5625 C-15.92070795 49.48203599 -17.15510197 50.39998326 -18.390625 51.31640625 C-18.99970703 51.77289551 -19.60878906 52.22938477 -20.23632812 52.69970703 C-23.64555411 55.21320892 -27.19691408 57.51179686 -30.73217773 59.84228516 C-40.01382474 65.97087658 -49.25337879 72.1593206 -58.453125 78.41015625 C-60.07682289 79.51236983 -61.7005208 80.61458338 -63.32421875 81.71679688 C-65.81384249 83.40705248 -68.30269356 85.09840072 -70.78955078 86.79272461 C-73.23773629 88.46009269 -75.68888991 90.12301357 -78.140625 91.78515625 C-78.88741516 92.2954689 -79.63420532 92.80578156 -80.40362549 93.33155823 C-81.09575134 93.79972458 -81.7878772 94.26789093 -82.50097656 94.75024414 C-83.10637268 95.1619838 -83.7117688 95.57372345 -84.33551025 95.99794006 C-86 97 -86 97 -89 98 C-89.24801107 92.00461865 -89.42901269 86.01224498 -89.54931641 80.01293945 C-89.59947674 77.97464986 -89.66762754 75.93671785 -89.75439453 73.8996582 C-90.45709061 56.97294964 -90.45709061 56.97294964 -86.93603516 52.20532227 C-84.35395082 50.39312546 -81.9202256 49.1733594 -79 48 C-77.95070313 47.28972656 -76.90140625 46.57945313 -75.8203125 45.84765625 C-74.93085937 45.25855469 -74.04140625 44.66945312 -73.125 44.0625 C-71.79855469 43.18271484 -71.79855469 43.18271484 -70.4453125 42.28515625 C-69.92936523 41.94307129 -69.41341797 41.60098633 -68.88183594 41.24853516 C-58.04657431 34.05970174 -47.2696704 26.78656678 -36.5 19.5 C-34.8737288 18.39969393 -33.24742688 17.29943328 -31.62109375 16.19921875 C-30.82711182 15.66184082 -30.03312988 15.12446289 -29.21508789 14.57080078 C-27.64812351 13.51217623 -26.07962582 12.45581736 -24.50952148 11.40185547 C-21.10043699 9.11200201 -17.71065572 6.80910417 -14.3828125 4.40234375 C-13.33867187 3.66113281 -12.29453125 2.91992188 -11.21875 2.15625 C-10.34154297 1.51494141 -9.46433594 0.87363281 -8.56054688 0.21289062 C-5.19227813 -1.38260509 -3.53885607 -1.06468889 0 0 Z " fill="#0D1827" transform="translate(165,15)"/>
<path d="M0 0 C5.59743024 2.65011078 10.5129031 5.59678347 15.5 9.25 C25.43499028 16.38990324 35.62301499 23.13136818 45.82128906 29.88720703 C49.07289027 32.04844796 52.31493331 34.22338977 55.5546875 36.40234375 C56.62388428 37.1200293 57.69308105 37.83771484 58.79467773 38.57714844 C60.82979011 39.9436917 62.86326591 41.31267668 64.89477539 42.68457031 C69.87682719 46.02290301 74.87451264 49.15427063 80.17602539 51.96191406 C83.17303866 53.66761617 85.4954654 55.45612414 86.5859375 58.79296875 C88.91645434 71.21506321 86.57674305 85.45430477 86 98 C81.52735416 96.44785378 77.7889937 94.04189525 73.890625 91.4140625 C73.2108963 90.96084625 72.5311676 90.50763 71.83084106 90.04067993 C69.63395248 88.57361473 67.44183538 87.09960191 65.25 85.625 C63.74049979 84.6141045 62.2308967 83.60336262 60.72119141 82.59277344 C52.5535491 77.11556652 44.4312134 71.58424427 36.43359375 65.8605957 C31.49534465 62.32708177 26.47787352 58.92962031 21.40039062 55.59936523 C18.33027201 53.58057222 15.31248711 51.52029211 12.3515625 49.34375 C11.47322754 48.70602661 11.47322754 48.70602661 10.57714844 48.05541992 C8.97819218 46.8878516 7.39100038 45.70422039 5.8046875 44.51953125 C3.18175524 42.76490313 3.18175524 42.76490313 0.63549805 43.20825195 C-2.36234674 44.10885507 -4.40332304 45.36220699 -6.97265625 47.1484375 C-7.94130615 47.81504395 -8.90995605 48.48165039 -9.90795898 49.16845703 C-10.94895752 49.89661621 -11.98995605 50.62477539 -13.0625 51.375 C-14.15962143 52.13354176 -15.257372 52.89117428 -16.35571289 53.64794922 C-18.6874505 55.2551739 -21.01668117 56.8659485 -23.34472656 58.47851562 C-27.05606166 61.04423522 -30.78700057 63.580393 -34.5234375 66.109375 C-35.14441818 66.52970001 -35.76539886 66.95002502 -36.40519714 67.38308716 C-38.24910624 68.63067532 -40.09329652 69.87784705 -41.9375 71.125 C-48.06952034 75.27344599 -54.19938274 79.42233356 -60.25390625 83.68359375 C-64.77677575 86.86209853 -69.36317536 89.92814253 -74 92.9375 C-74.74894531 93.43056641 -75.49789062 93.92363281 -76.26953125 94.43164062 C-77.34267578 95.12870117 -77.34267578 95.12870117 -78.4375 95.83984375 C-79.39462891 96.46427368 -79.39462891 96.46427368 -80.37109375 97.10131836 C-82 98 -82 98 -84 98 C-84.2481016 92.28946457 -84.42904829 86.58209154 -84.54931641 80.86743164 C-84.59946277 78.92612045 -84.66760381 76.98518435 -84.75439453 75.04516602 C-85.45247593 59.03446378 -85.45247593 59.03446378 -82.15136719 54.41064453 C-79.52858796 52.56294432 -76.92596938 51.30999125 -74 50 C-72.01526051 48.71577632 -70.05202359 47.39782904 -68.109375 46.05078125 C-66.07356812 44.69953883 -64.03711056 43.34927621 -62 42 C-60.04663442 40.70218495 -58.09350716 39.40401112 -56.140625 38.10546875 C-55.17882324 37.46601318 -54.21702148 36.82655762 -53.22607422 36.16772461 C-44.16430132 30.13818893 -35.13235649 24.0730904 -26.1796875 17.8828125 C-20.80385321 14.16728085 -15.40052111 10.49200908 -10 6.8125 C-8.51862549 5.80304321 -8.51862549 5.80304321 -7.00732422 4.77319336 C-4.67172669 3.1818685 -2.33596064 1.59079178 0 0 Z " fill="#0D1827" transform="translate(160,78)"/>
</svg>
